<?xml version="1.0" encoding="UTF-8"?>
<svg data-name="Ebene 2" viewBox="0 0 160.98 69.66" xmlns="http://www.w3.org/2000/svg">
<defs>
<style>.cls-1{fill:#444442;}.cls-2{fill:url(#a);}.cls-3{fill:#060807;}.cls-4{fill:#020203;}</style>
<linearGradient id="a" x1="92.71" x2="114.46" y1="23.52" y2="23.52" gradientTransform="matrix(.99 -.15 -.15 -.99 -2.58 66)" gradientUnits="userSpaceOnUse">
<stop stop-color="#feeb17" offset="0"/>
<stop stop-color="#feca05" offset="1"/>
</linearGradient>
</defs>
<polygon class="cls-1" points="92.6 4.92 84.62 23.04 93.5 22.66 88.34 31.16 96.59 31.36 90.47 54.92 108.61 20.3 100.6 21.55 105.22 11.06 97.04 12.97 100.92 2.32"/>
<polygon class="cls-2" points="88.66 3.33 84.62 23.04 90.95 21.5 88.34 31.16 94.72 30.2 90.47 54.92 105.83 17.88 97.93 19.8 101.72 8.66 93.71 11.26 96.75 0"/>
<path class="cls-3" transform="translate(-2.61)" d="M115.14,52.78h-7.6l6-29.75h16.77L129,29.48h-9.17l-1.13,5.68h8.48l-1.34,6.49h-8.52Z"/>
<path class="cls-3" transform="translate(-2.61)" d="M138.61,52.78V31.44h-.16q-1.29,8.49-1.67,10.42l-2.2,10.92h-6.77l6-29.75H143.9V44.16h.15L153.35,23h10.24L157.5,52.78h-6.83L153,41.61q1-4.63,2.1-8.87l.29-1.31h-.15l-9.38,21.35Z"/>
<path class="cls-3" transform="translate(-2.61)" d="M38.93,47.21H30.22l-2.44,5.57h-7.9L34.36,23h9.79l2.39,29.75H39.13ZM33,40.86h5.7l-.33-8.63,0-1.75c0-1,0-1.9.08-2.66a23.35,23.35,0,0,1-1.19,3.38Z"/>
<path class="cls-3" transform="translate(-2.61)" d="M59.14,52.78V31.44H59q-1.31,8.49-1.67,10.42l-2.2,10.92H48.35l6-29.75H64.43V44.16h.16L73.89,23H84.12L78,52.78H71.21l2.27-11.17q1-4.63,2.1-8.87l.3-1.31h-.16L66.34,52.78Z"/>
<path class="cls-3" transform="translate(-2.61)" d="M17.49,23,13.74,41.28a8.67,8.67,0,0,1-1.63,4A4,4,0,0,1,9,46.45a11.94,11.94,0,0,1-2.11-.21L5.57,52.46a15.28,15.28,0,0,0,4.14.59A13.19,13.19,0,0,0,15.4,52,8.28,8.28,0,0,0,19,48.64a20.85,20.85,0,0,0,2.2-6.36L25.1,23Z"/>
<path class="cls-4" transform="translate(-2.61)" d="M9.74,64.17A6.9,6.9,0,0,1,9.19,67,4.08,4.08,0,0,1,7.6,68.87a4.64,4.64,0,0,1-2.46.64H2.61l1.73-8.59H6.57a3.13,3.13,0,0,1,2.34.84A3.29,3.29,0,0,1,9.74,64.17ZM5.22,68a2.42,2.42,0,0,0,1.45-.44,3,3,0,0,0,1-1.31,5.36,5.36,0,0,0,.34-2,2,2,0,0,0-.4-1.37,1.45,1.45,0,0,0-1.17-.48H5.76L4.62,68Z"/>
<path class="cls-4" transform="translate(-2.61)" d="M14.89,69.5H10.31L12,60.92h4.6l-.31,1.49H13.46l-.38,1.89h2.68l-.31,1.49H12.77L12.32,68H15.2Z"/>
<path class="cls-4" transform="translate(-2.61)" d="M16.54,69.5l1.75-8.58H20L18.25,69.5Z"/>
<path class="cls-4" transform="translate(-2.61)" d="M26.91,69.5H25L23,63h0l0,.19c-.12.84-.24,1.6-.37,2.26l-.81,4H20.2l1.74-8.58h2l1.91,6.32h0c.05-.3.12-.72.22-1.27s.44-2.24,1-5h1.54Z"/>
<path class="cls-4" transform="translate(-2.61)" d="M33.43,69.5H28.84l1.74-8.58h4.59l-.3,1.49H32l-.38,1.89h2.68L34,65.79H31.31L30.86,68h2.87Z"/>
<path class="cls-4" transform="translate(-2.61)" d="M44.76,69.5H42.84l-2-6.49h0l0,.19c-.12.84-.25,1.6-.37,2.26l-.82,4H38.06l1.73-8.58h2l1.91,6.32h0c.05-.3.12-.72.22-1.27s.44-2.24,1-5h1.54Z"/>
<path class="cls-4" transform="translate(-2.61)" d="M49.08,66.21l-.67,3.29H46.7l1.73-8.58h2a2.93,2.93,0,0,1,2,.6,2.23,2.23,0,0,1,.66,1.75,2.69,2.69,0,0,1-.46,1.59,2.76,2.76,0,0,1-1.34,1l1.46,3.64H50.91l-1.16-3.29Zm.3-1.48h.44A1.71,1.71,0,0,0,51,64.39a1.21,1.21,0,0,0,.41-1,1,1,0,0,0-.26-.72,1.24,1.24,0,0,0-.84-.24h-.42Z"/>
<path class="cls-4" transform="translate(-2.61)" d="M53.79,68.83a1.17,1.17,0,0,1,.3-.84,1.09,1.09,0,0,1,.85-.32.83.83,0,0,1,.61.22.85.85,0,0,1,.23.63,1.18,1.18,0,0,1-.31.83,1.09,1.09,0,0,1-.81.31.87.87,0,0,1-.64-.22A.81.81,0,0,1,53.79,68.83Z"/>
<path class="cls-4" transform="translate(-2.61)" d="M59.85,69.5H58.14l1-4.86c.13-.6.28-1.16.43-1.69l-.35.28c-.19.15-.68.48-1.47,1L57,63l3.18-2h1.4Z"/>
<path class="cls-4" transform="translate(-2.61)" d="M67.32,69.5H65.61l1.73-8.58h4.57l-.3,1.49H68.76l-.45,2.21H71l-.32,1.49H68Z"/>
<path class="cls-4" transform="translate(-2.61)" d="M79.31,60.92l-1.13,5.55A4.11,4.11,0,0,1,77,68.83a3.43,3.43,0,0,1-2.35.79A2.6,2.6,0,0,1,72.73,69a2.44,2.44,0,0,1-.68-1.81,3.59,3.59,0,0,1,.09-.81l1.1-5.42H75l-1.09,5.39a3.2,3.2,0,0,0-.09.74.93.93,0,0,0,1.06,1,1.39,1.39,0,0,0,1.09-.45,2.78,2.78,0,0,0,.58-1.34l1.09-5.38ZM74.43,59.4a.82.82,0,0,1,.91-.92c.49,0,.74.21.74.63a1.07,1.07,0,0,1-.21.69.86.86,0,0,1-.68.25C74.68,60.05,74.43,59.84,74.43,59.4Zm2.26,0a.93.93,0,0,1,.23-.69,1,1,0,0,1,.68-.23.8.8,0,0,1,.55.16.59.59,0,0,1,.2.47,1,1,0,0,1-.23.69.83.83,0,0,1-.67.25C76.94,60.05,76.69,59.84,76.69,59.4Z"/>
<path class="cls-4" transform="translate(-2.61)" d="M81.82,66.21l-.66,3.29H79.44l1.74-8.58h2a2.9,2.9,0,0,1,2,.6,2.2,2.2,0,0,1,.67,1.75,2.69,2.69,0,0,1-.47,1.59,2.76,2.76,0,0,1-1.34,1l1.47,3.64H83.66l-1.17-3.29Zm.3-1.48h.44a1.75,1.75,0,0,0,1.15-.34,1.24,1.24,0,0,0,.41-1,.91.91,0,0,0-.27-.72,1.22,1.22,0,0,0-.84-.24H82.6Z"/>
<path class="cls-4" transform="translate(-2.61)" d="M96.13,69.5H94.21l-2-6.49h0l0,.19c-.12.84-.24,1.6-.37,2.26l-.81,4H89.43l1.73-8.58h2l1.91,6.32h0c0-.3.12-.72.21-1.27s.44-2.24,1-5h1.53Z"/>
<path class="cls-4" transform="translate(-2.61)" d="M102.66,69.5H98.07l1.74-8.58h4.59l-.31,1.49h-2.87l-.38,1.89h2.68l-.31,1.49h-2.68L100.08,68H103Z"/>
<path class="cls-4" transform="translate(-2.61)" d="M112,60.92l-1.13,5.55a4.11,4.11,0,0,1-1.22,2.36,3.43,3.43,0,0,1-2.35.79,2.56,2.56,0,0,1-1.87-.66,2.41,2.41,0,0,1-.68-1.81,3.59,3.59,0,0,1,.08-.81l1.1-5.42h1.71l-1.09,5.39a3.86,3.86,0,0,0-.09.74.93.93,0,0,0,1.06,1,1.39,1.39,0,0,0,1.09-.45,2.69,2.69,0,0,0,.58-1.34l1.09-5.38Z"/>
<path class="cls-4" transform="translate(-2.61)" d="M116.7,69.5h-4.58l1.73-8.58h4.59l-.3,1.49h-2.88l-.37,1.89h2.67l-.3,1.49h-2.68L114.13,68H117Z"/>
<path class="cls-4" transform="translate(-2.61)" d="M125.74,67.34l3.09-6.42h2.38l-1.74,8.59H127.9l.82-4.07c.19-1,.39-1.83.59-2.59h0l-3.2,6.66H124.5l-.34-6.66h0c0,.35-.11.8-.21,1.36s-.45,2.33-1.05,5.3h-1.55l1.74-8.59h2.27l.38,6.42Z"/>
<path class="cls-4" transform="translate(-2.61)" d="M139.08,60.92,138,66.47a4.11,4.11,0,0,1-1.22,2.36,3.45,3.45,0,0,1-2.36.79A2.59,2.59,0,0,1,132.5,69a2.44,2.44,0,0,1-.68-1.81,3.59,3.59,0,0,1,.09-.81l1.1-5.42h1.71l-1.09,5.39a3.29,3.29,0,0,0-.1.74.93.93,0,0,0,1.06,1,1.41,1.41,0,0,0,1.1-.45,2.78,2.78,0,0,0,.58-1.34l1.09-5.38Z"/>
<path class="cls-4" transform="translate(-2.61)" d="M144.21,67a2.44,2.44,0,0,1-.83,1.94,3.35,3.35,0,0,1-2.25.71,3.45,3.45,0,0,1-2-.53V67.48a4.06,4.06,0,0,0,2,.64,1.63,1.63,0,0,0,1-.25.8.8,0,0,0,.36-.69,1.23,1.23,0,0,0-.08-.44,1.25,1.25,0,0,0-.22-.36,5.64,5.64,0,0,0-.69-.59,3.71,3.71,0,0,1-1.09-1.15,2.54,2.54,0,0,1-.32-1.23,2.67,2.67,0,0,1,.35-1.36,2.38,2.38,0,0,1,1-.92,3.19,3.19,0,0,1,1.48-.33,4.39,4.39,0,0,1,2.23.58l-.61,1.37a3.69,3.69,0,0,0-1.62-.44,1.11,1.11,0,0,0-.76.26.89.89,0,0,0-.3.7,1.11,1.11,0,0,0,.18.63,3.44,3.44,0,0,0,.83.71,3.35,3.35,0,0,1,1,1A2.45,2.45,0,0,1,144.21,67Z"/>
<path class="cls-4" transform="translate(-2.61)" d="m145.2 69.5 1.8-8.58h1.71l-1.75 8.58z"/>
<path class="cls-4" transform="translate(-2.61)" d="M155,69.5h-1.89L151.89,66l-.7.41-.61,3.06h-1.72l1.74-8.58h1.71L151.46,65l.89-1.2,2.29-2.92h2L153.33,65Z"/>
</svg>
